<svg width="1440" height="1024" viewBox="0 0 1440 1024" fill="none" xmlns="http://www.w3.org/2000/svg">
<circle cx="719" cy="586" r="50" fill="#959595"/>
<rect x="669" y="648" width="100" height="161" fill="#959595"/>
<rect x="669" y="777" width="40" height="188" rx="20" fill="#959595"/>
<rect x="568" y="594" width="40" height="160" rx="20" transform="rotate(-45 568 594)" fill="#959595"/>
<rect x="758.284" y="707" width="40" height="160" rx="20" transform="rotate(-135 758.284 707)" fill="#959595"/>
<rect x="729" y="777" width="40" height="188" rx="20" fill="#959595"/>
<path d="M227.712 384.26L251.974 411.297L285.185 396.578L266.968 428.007L291.23 455.044L255.71 447.431L237.493 478.861L233.757 442.726L198.236 435.114L231.448 420.394L227.712 384.26Z" fill="#959595"/>
<path d="M1340.51 433.521L1356.7 451.566L1378.87 441.742L1366.71 462.719L1382.9 480.764L1359.19 475.683L1347.04 496.659L1344.54 472.543L1320.84 467.462L1343 457.638L1340.51 433.521Z" fill="#959595"/>
<path d="M1281.59 77.8953L1257.72 73.631L1246.29 95.0122L1242.97 70.9955L1219.11 66.7313L1240.92 56.1524L1237.6 32.1357L1254.4 49.6143L1276.22 39.0355L1264.79 60.4167L1281.59 77.8953Z" fill="#959595"/>
<path d="M1239.71 153.26L1263.97 180.297L1297.18 165.577L1278.97 197.007L1303.23 224.044L1267.71 216.431L1249.49 247.861L1245.76 211.726L1210.24 204.114L1243.45 189.394L1239.71 153.26Z" fill="#959595"/>
<path d="M832.214 100.655L837.59 136.582L873.421 142.571L840.913 158.787L846.29 194.714L820.823 168.808L788.315 185.024L805.083 152.798L779.616 126.892L815.446 132.881L832.214 100.655Z" fill="#959595"/>
<path d="M234.748 256.72L237.777 276.96L257.962 280.333L239.649 289.468L242.677 309.708L228.331 295.114L210.018 304.249L219.464 286.094L205.117 271.501L225.302 274.874L234.748 256.72Z" fill="#959595"/>
<path d="M612.697 195.821L620.454 190.477L617.768 181.448L625.248 187.174L633.006 181.829L629.871 190.712L637.352 196.438L627.934 196.203L624.8 205.086L622.114 196.057L612.697 195.821Z" fill="#959595"/>
<path d="M1182.96 406.736L1203.79 436.504L1238.53 425.9L1216.65 454.902L1237.48 484.67L1203.13 472.825L1181.26 501.827L1181.91 465.505L1147.57 453.661L1182.31 443.057L1182.96 406.736Z" fill="#959595"/>
<path d="M458.064 167.418L457.323 203.738L491.635 215.666L456.864 226.185L456.123 262.504L435.375 232.685L400.603 243.203L422.551 214.256L401.803 184.437L436.116 196.366L458.064 167.418Z" fill="#959595"/>
<path d="M1162.57 308.934L1162.08 333.174L1184.98 341.135L1161.77 348.155L1161.28 372.395L1147.43 352.493L1124.22 359.513L1138.87 340.194L1125.02 320.292L1147.92 328.253L1162.57 308.934Z" fill="#959595"/>
<path d="M311.916 181.209L311.528 200.235L329.503 206.484L311.288 211.994L310.899 231.021L300.03 215.4L281.814 220.91L293.312 205.745L282.443 190.124L300.418 196.373L311.916 181.209Z" fill="#959595"/>
<path d="M494.14 147.684L511.404 139.676L509.122 120.782L522.073 134.726L539.337 126.718L530.078 143.344L543.029 157.288L524.355 153.62L515.096 170.246L512.814 151.352L494.14 147.684Z" fill="#959595"/>
<path d="M1036.49 306.944L1036.23 319.643L1048.22 323.813L1036.07 327.491L1035.81 340.189L1028.55 329.764L1016.4 333.441L1024.07 323.32L1016.81 312.894L1028.81 317.065L1036.49 306.944Z" fill="#959595"/>
<path d="M473.993 303.74L473.734 316.439L485.731 320.61L473.574 324.287L473.314 336.986L466.06 326.56L453.903 330.237L461.577 320.116L454.322 309.691L466.319 313.861L473.993 303.74Z" fill="#959595"/>
<path d="M1399.82 64.7315L1392.21 54.5609L1380.18 58.6535L1387.51 48.2751L1379.9 38.1045L1392.03 41.861L1399.35 31.4826L1399.53 44.1826L1411.66 47.939L1399.64 52.0316L1399.82 64.7315Z" fill="#959595"/>
<path d="M650.943 63.601L650.554 82.6276L668.53 88.8766L650.314 94.3867L649.926 113.413L639.057 97.7922L620.841 103.302L632.339 88.1378L621.47 72.5166L639.445 78.7655L650.943 63.601Z" fill="#959595"/>
<path d="M132.629 235.845L132.41 246.564L142.536 250.084L132.274 253.189L132.056 263.907L125.932 255.107L115.671 258.211L122.148 249.668L116.025 240.868L126.151 244.388L132.629 235.845Z" fill="#959595"/>
<path d="M570.769 297.188L580.495 292.676L579.209 282.033L586.505 289.888L596.231 285.377L591.014 294.743L598.31 302.598L587.791 300.532L582.574 309.898L581.289 299.255L570.769 297.188Z" fill="#959595"/>
<path d="M322.629 75.8454L322.41 86.564L332.536 90.0844L322.274 93.1885L322.056 103.907L315.932 95.107L305.671 98.2111L312.148 89.6682L306.025 80.868L316.151 84.3883L322.629 75.8454Z" fill="#959595"/>
<path d="M403.629 29.8454L403.41 40.564L413.536 44.0844L403.274 47.1885L403.056 57.9072L396.932 49.107L386.671 52.2111L393.148 43.6682L387.025 34.868L397.151 38.3883L403.629 29.8454Z" fill="#959595"/>
<path d="M256.629 17.8454L256.41 28.564L266.536 32.0844L256.274 35.1885L256.056 45.9072L249.932 37.107L239.671 40.2111L246.148 31.6682L240.025 22.868L250.151 26.3883L256.629 17.8454Z" fill="#959595"/>
<path d="M211.629 137.845L211.41 148.564L221.536 152.084L211.274 155.189L211.056 165.907L204.932 157.107L194.671 160.211L201.148 151.668L195.025 142.868L205.151 146.388L211.629 137.845Z" fill="#959595"/>
<path d="M350.629 289.845L350.41 300.564L360.536 304.084L350.274 307.189L350.056 317.907L343.932 309.107L333.671 312.211L340.148 303.668L334.025 294.868L344.151 298.388L350.629 289.845Z" fill="#959595"/>
<path d="M47.6286 34.8454L47.4098 45.564L57.5362 49.0844L47.2745 52.1885L47.0557 62.9072L40.9325 54.107L30.6708 57.2111L37.1481 48.6682L31.0248 39.868L41.1513 43.3883L47.6286 34.8454Z" fill="#959595"/>
<path d="M57.6286 456.845L57.4098 467.564L67.5362 471.084L57.2745 474.189L57.0557 484.907L50.9325 476.107L40.6708 479.211L47.1481 470.668L41.0248 461.868L51.1513 465.388L57.6286 456.845Z" fill="#959595"/>
<path d="M696.396 22.3431L703.629 30.2561L713.39 25.822L708.1 35.1466L715.333 43.0597L704.83 40.9096L699.539 50.2342L698.339 39.5807L687.836 37.4306L697.597 32.9965L696.396 22.3431Z" fill="#959595"/>
<path d="M574.732 65.1879L584.457 60.6764L583.172 50.0329L590.468 57.8882L600.194 53.3767L594.977 62.743L602.273 70.5983L591.754 68.5317L586.537 77.8981L585.252 67.2545L574.732 65.1879Z" fill="#959595"/>
<path d="M1033.74 200.255L1034.13 219.281L1016.15 225.53L1034.37 231.04L1034.76 250.067L1045.63 234.446L1063.84 239.956L1052.34 224.791L1063.21 209.17L1045.24 215.419L1033.74 200.255Z" fill="#959595"/>
<path d="M1028.58 102.743L1014.36 115.385L997.941 105.764L1005.57 123.199L991.345 135.842L1010.28 133.974L1017.91 151.409L1021.99 132.82L1040.93 130.953L1024.51 121.331L1028.58 102.743Z" fill="#959595"/>
<path d="M1401.46 242.66L1389.44 227.899L1399.77 211.914L1382.02 218.776L1370.01 204.015L1371.05 223.017L1353.3 229.879L1371.69 234.761L1372.74 253.763L1383.06 237.778L1401.46 242.66Z" fill="#959595"/>
<path d="M223.872 73.1999L204.916 74.884L200.66 93.4326L193.2 75.9248L174.244 77.6089L188.59 65.1044L181.131 47.5966L197.456 57.3762L211.802 44.8718L207.546 63.4203L223.872 73.1999Z" fill="#959595"/>
<path d="M977.724 234.858L965.073 235.982L962.232 248.362L957.254 236.677L944.602 237.801L954.177 229.455L949.198 217.77L960.094 224.297L969.669 215.952L966.828 228.331L977.724 234.858Z" fill="#959595"/>
<path d="M1347.99 285.858L1335.34 286.982L1332.5 299.362L1327.52 287.677L1314.87 288.801L1324.44 280.455L1319.46 268.77L1330.36 275.297L1339.93 266.952L1337.09 279.331L1347.99 285.858Z" fill="#959595"/>
<path d="M945.987 151.858L933.336 152.982L930.495 165.362L925.517 153.677L912.866 154.801L922.44 146.455L917.462 134.77L928.358 141.297L937.932 132.952L935.092 145.331L945.987 151.858Z" fill="#959595"/>
<path d="M1100.99 56.8582L1088.34 57.9822L1085.5 70.3616L1080.52 58.6768L1067.87 59.8008L1077.44 51.4552L1072.46 39.7704L1083.36 46.2973L1092.93 37.9517L1090.09 50.3312L1100.99 56.8582Z" fill="#959595"/>
<path d="M1121.79 92.2458L1140.74 93.9299L1145 112.478L1152.46 94.9707L1171.41 96.6548L1157.07 84.1503L1164.53 66.6426L1148.2 76.4222L1133.85 63.9177L1138.11 82.4663L1121.79 92.2458Z" fill="#959595"/>
<path d="M87.9177 338.246L68.9617 339.93L64.7057 358.478L57.2463 340.971L38.2904 342.655L52.6362 330.15L45.1768 312.643L61.5024 322.422L75.8482 309.918L71.5921 328.466L87.9177 338.246Z" fill="#959595"/>
<path d="M733.607 279.94L743.446 296.229L761.979 291.905L749.527 306.297L759.367 322.587L741.832 315.191L729.38 329.583L730.994 310.621L713.46 303.225L731.992 298.902L733.607 279.94Z" fill="#959595"/>
<path d="M1299.51 536.951L1309.35 553.241L1327.88 548.917L1315.43 563.309L1325.27 579.598L1307.73 572.203L1295.28 586.594L1296.9 567.632L1279.36 560.237L1297.89 555.913L1299.51 536.951Z" fill="#959595"/>
<path d="M1409.99 376.858L1397.34 377.982L1394.5 390.362L1389.52 378.677L1376.87 379.801L1386.44 371.455L1381.46 359.77L1392.36 366.297L1401.93 357.952L1399.09 370.331L1409.99 376.858Z" fill="#959595"/>
<path d="M1257.74 357.292L1276.69 358.976L1280.95 377.524L1288.41 360.017L1307.37 361.701L1293.02 349.196L1300.48 331.689L1284.15 341.468L1269.81 328.964L1274.06 347.512L1257.74 357.292Z" fill="#959595"/>
<path d="M929.762 44.6585L934.99 62.9569L919.202 73.5834L938.221 74.266L943.449 92.5644L949.975 74.6878L968.993 75.3703L954.008 63.6394L960.534 45.7628L944.747 56.3893L929.762 44.6585Z" fill="#959595"/>
<path d="M1313.09 126.907L1327 113.917L1318.94 96.6757L1335.59 105.889L1349.5 92.8998L1345.88 111.584L1362.53 120.797L1343.65 123.131L1340.03 141.814L1331.97 124.573L1313.09 126.907Z" fill="#959595"/>
<path d="M162.918 549.246L143.962 550.93L139.706 569.479L132.246 551.971L113.29 553.655L127.636 541.15L120.177 523.643L136.502 533.422L150.848 520.918L146.592 539.466L162.918 549.246Z" fill="#959595"/>
<path d="M833.984 27.1986L821.419 41.4905L831.128 57.8579L813.652 50.3235L801.086 64.6155L802.852 45.6669L785.376 38.1325L803.943 33.9561L805.708 15.0076L815.418 31.3749L833.984 27.1986Z" fill="#959595"/>
<path d="M1126.59 445.122L1113.94 446.246L1111.1 458.626L1106.12 446.941L1093.47 448.065L1103.04 439.719L1098.06 428.035L1108.96 434.562L1118.53 426.216L1115.69 438.595L1126.59 445.122Z" fill="#959595"/>
<path d="M458.918 104.246L439.962 105.93L435.706 124.479L428.246 106.971L409.29 108.655L423.636 96.1504L416.177 78.6426L432.502 88.4222L446.848 75.9177L442.592 94.4663L458.918 104.246Z" fill="#959595"/>
<path d="M1134.6 255.578L1121.94 256.702L1119.1 269.082L1114.13 257.397L1101.47 258.521L1111.05 250.175L1106.07 238.491L1116.97 245.018L1126.54 236.672L1123.7 249.052L1134.6 255.578Z" fill="#959595"/>
<path d="M1236.99 295.858L1224.34 296.982L1221.5 309.362L1216.52 297.677L1203.87 298.801L1213.44 290.455L1208.46 278.77L1219.36 285.297L1228.93 276.952L1226.09 289.331L1236.99 295.858Z" fill="#959595"/>
<path d="M686.008 206.52L699.824 219.607L716.54 210.511L708.363 227.695L722.18 240.782L703.309 238.315L695.132 255.5L691.647 236.791L672.777 234.325L689.493 225.228L686.008 206.52Z" fill="#959595"/>
<path d="M138.22 350.081L146.004 357.454L155.421 352.329L150.814 362.01L158.598 369.383L147.967 367.993L143.361 377.674L141.397 367.135L130.767 365.745L140.184 360.621L138.22 350.081Z" fill="#959595"/>
<path d="M707.029 154.605L710.234 144.374L701.494 138.165L712.214 138.051L715.419 127.82L718.84 137.981L729.56 137.867L720.954 144.26L724.375 154.421L715.635 148.211L707.029 154.605Z" fill="#959595"/>
<path d="M79.8225 97.5946L100.644 127.363L135.389 116.759L113.512 145.76L134.334 175.528L99.9918 163.684L78.115 192.685L78.7672 156.364L44.4252 144.52L79.1703 133.916L79.8225 97.5946Z" fill="#959595"/>
<path d="M881.584 251.139L895.481 271.007L918.67 263.93L904.069 283.285L917.966 303.153L895.046 295.248L880.445 314.603L880.88 290.362L857.96 282.457L881.149 275.381L881.584 251.139Z" fill="#959595"/>
<path d="M459.164 418.752V432H413.256V366.68H458.336V379.928H428.344V392.624H454.104V404.86H428.344V418.752H459.164ZM519.85 432V393.084L505.774 421.42H497.494L483.418 393.084V432H468.33V366.68H484.706L501.634 400.812L518.654 366.68H534.938V432H519.85ZM547.483 432V366.68H575.359C578.487 366.68 581.339 367.324 583.915 368.612C586.552 369.839 588.821 371.525 590.723 373.672C592.624 375.757 594.096 378.119 595.139 380.756C596.181 383.393 596.703 386.092 596.703 388.852C596.703 392.593 595.813 396.151 594.035 399.524C592.317 402.897 589.895 405.657 586.767 407.804C583.7 409.889 580.051 410.932 575.819 410.932H562.571V432H547.483ZM562.571 397.776H574.899C576.064 397.776 577.137 397.439 578.119 396.764C579.1 396.089 579.897 395.077 580.511 393.728C581.124 392.379 581.431 390.723 581.431 388.76C581.431 386.736 581.063 385.08 580.327 383.792C579.652 382.443 578.763 381.461 577.659 380.848C576.616 380.235 575.512 379.928 574.347 379.928H562.571V397.776ZM654.575 379.928H634.703V432H619.615V379.928H599.651V366.68H654.575V379.928ZM672.064 366.68L686.14 395.568L700.4 366.68H716.868L693.592 409.736V432H678.596V409.552L655.688 366.68H672.064ZM783.612 385.816C783.428 385.509 782.784 385.049 781.68 384.436C780.576 383.761 779.196 383.056 777.54 382.32C775.884 381.584 774.075 380.94 772.112 380.388C770.149 379.836 768.187 379.56 766.224 379.56C763.648 379.56 761.655 380.02 760.244 380.94C758.833 381.799 758.128 383.148 758.128 384.988C758.128 386.46 758.649 387.625 759.692 388.484C760.796 389.343 762.36 390.109 764.384 390.784C766.408 391.397 768.892 392.133 771.836 392.992C776.007 394.096 779.625 395.445 782.692 397.04C785.759 398.573 788.089 400.567 789.684 403.02C791.34 405.473 792.168 408.724 792.168 412.772C792.168 416.452 791.493 419.58 790.144 422.156C788.795 424.671 786.955 426.725 784.624 428.32C782.355 429.853 779.748 430.988 776.804 431.724C773.86 432.399 770.824 432.736 767.696 432.736C764.507 432.736 761.225 432.429 757.852 431.816C754.54 431.141 751.351 430.221 748.284 429.056C745.217 427.829 742.396 426.357 739.82 424.64L746.444 411.484C746.689 411.791 747.487 412.373 748.836 413.232C750.185 414.029 751.841 414.888 753.804 415.808C755.828 416.667 758.067 417.433 760.52 418.108C762.973 418.783 765.457 419.12 767.972 419.12C770.671 419.12 772.664 418.691 773.952 417.832C775.301 416.973 775.976 415.777 775.976 414.244C775.976 412.588 775.271 411.3 773.86 410.38C772.511 409.46 770.64 408.632 768.248 407.896C765.917 407.16 763.219 406.332 760.152 405.412C756.165 404.185 752.853 402.805 750.216 401.272C747.64 399.739 745.708 397.868 744.42 395.66C743.193 393.452 742.58 390.692 742.58 387.38C742.58 382.78 743.653 378.916 745.8 375.788C748.008 372.599 750.952 370.207 754.632 368.612C758.312 366.956 762.329 366.128 766.684 366.128C769.751 366.128 772.695 366.496 775.516 367.232C778.399 367.968 781.067 368.888 783.52 369.992C786.035 371.096 788.273 372.2 790.236 373.304L783.612 385.816ZM801.022 432V366.68H828.898C832.026 366.68 834.878 367.324 837.454 368.612C840.091 369.839 842.36 371.525 844.262 373.672C846.163 375.757 847.635 378.119 848.678 380.756C849.72 383.393 850.242 386.092 850.242 388.852C850.242 392.593 849.352 396.151 847.574 399.524C845.856 402.897 843.434 405.657 840.306 407.804C837.239 409.889 833.59 410.932 829.358 410.932H816.11V432H801.022ZM816.11 397.776H828.438C829.603 397.776 830.676 397.439 831.658 396.764C832.639 396.089 833.436 395.077 834.05 393.728C834.663 392.379 834.97 390.723 834.97 388.76C834.97 386.736 834.602 385.08 833.866 383.792C833.191 382.443 832.302 381.461 831.198 380.848C830.155 380.235 829.051 379.928 827.886 379.928H816.11V397.776ZM874.81 366.68H891.094L913.542 432H898.086L893.026 417.372H872.694L867.726 432H852.27L874.81 366.68ZM890.542 406.976L882.906 381.86L875.086 406.976H890.542ZM916.203 398.788C916.203 394.801 916.939 390.907 918.411 387.104C919.883 383.24 922.029 379.744 924.851 376.616C927.672 373.488 931.107 371.004 935.155 369.164C939.203 367.263 943.803 366.312 948.955 366.312C955.088 366.312 960.393 367.631 964.871 370.268C969.409 372.905 972.783 376.34 974.991 380.572L963.399 388.668C962.417 386.337 961.099 384.528 959.443 383.24C957.848 381.952 956.069 381.063 954.107 380.572C952.205 380.02 950.365 379.744 948.587 379.744C945.704 379.744 943.189 380.327 941.043 381.492C938.896 382.596 937.117 384.099 935.707 386C934.296 387.901 933.253 390.017 932.579 392.348C931.904 394.679 931.567 397.009 931.567 399.34C931.567 401.916 931.965 404.4 932.763 406.792C933.56 409.184 934.695 411.3 936.167 413.14C937.7 414.98 939.54 416.452 941.687 417.556C943.833 418.599 946.195 419.12 948.771 419.12C950.611 419.12 952.481 418.813 954.383 418.2C956.284 417.587 958.032 416.636 959.627 415.348C961.283 413.999 962.54 412.251 963.399 410.104L975.727 417.372C974.439 420.561 972.323 423.291 969.379 425.56C966.435 427.829 963.092 429.577 959.351 430.804C955.671 431.969 952.021 432.552 948.403 432.552C943.68 432.552 939.325 431.601 935.339 429.7C931.413 427.737 928.009 425.161 925.127 421.972C922.305 418.721 920.097 415.103 918.503 411.116C916.969 407.068 916.203 402.959 916.203 398.788ZM1029.22 418.752V432H983.315V366.68H1028.39V379.928H998.403V392.624H1024.16V404.86H998.403V418.752H1029.22Z" fill="#959595"/>
</svg>
